# xmcd
#
# Track frame offsets: 
#        150
#        22656
#        41837
#        73659
#        98308
#        119973
#        134438
#        167327
#        196449
#        216843
#        236680
#        252441
#        280327
#        305118
#
# Disc length: 4267 seconds
#
# Revision: 0
# Processed by: cddbd v1.5.2PL0 Copyright (c) Steve Scherf et al.
# Submitted via: ExactAudioCopyFreeDBPlugin 1.0
#
DISCID=ce10a90e
DTITLE=Kim Anh - Toi dua em sang song D2
DYEAR=1900
DGENRE=Ballad
TTITLE0=Tam hon co don
TTITLE1=Co ua
TTITLE2=Nha Trang ngay ve
TTITLE3=Hoa tim ngoai san
TTITLE4=Bien vang
TTITLE5=Tinh ca mua ha
TTITLE6=Me
TTITLE7=Mua xuan cua me
TTITLE8=Me yeu dau
TTITLE9=Got hong thoi het phieu du
TTITLE10=Lien khuc me
TTITLE11=Biet noi gi day
TTITLE12=Mua dong cuoi cung
TTITLE13=Ai buon hon ai
EXTD=
EXTT0=
EXTT1=
EXTT2=
EXTT3=
EXTT4=
EXTT5=
EXTT6=
EXTT7=
EXTT8=
EXTT9=
EXTT10=
EXTT11=
EXTT12=
EXTT13=
PLAYORDER=
